<svg width="76" height="76" viewBox="0 0 76 76" fill="none" xmlns="http://www.w3.org/2000/svg">
<path d="M38 19C48.4934 19 57 27.5066 57 38C57 48.4934 48.4934 57 38 57C27.5066 57 19 48.4934 19 38C19 27.5066 27.5066 19 38 19ZM38 22.9583C30.2275 22.9583 23.8319 28.8536 23.0407 36.4167H30.2417C30.9752 32.8031 34.17 30.0833 38 30.0833C41.83 30.0833 45.0248 32.8031 45.7583 36.4167H52.9593C52.1681 28.8536 45.7725 22.9583 38 22.9583ZM23.0407 39.5833C23.8319 47.1464 30.2275 53.0417 38 53.0417C45.7725 53.0417 52.1681 47.1464 52.9593 39.5833L45.7583 39.5834C45.0248 43.1969 41.83 45.9167 38 45.9167C34.17 45.9167 30.9752 43.1969 30.2417 39.5834L23.0407 39.5833ZM38 33.25C35.3766 33.25 33.25 35.3767 33.25 38C33.25 40.6234 35.3766 42.75 38 42.75C40.6233 42.75 42.75 40.6234 42.75 38C42.75 35.3767 40.6233 33.25 38 33.25ZM38 35.625C39.3117 35.625 40.375 36.6883 40.375 38C40.375 39.3117 39.3117 40.375 38 40.375C36.6883 40.375 35.625 39.3117 35.625 38C35.625 36.6883 36.6883 35.625 38 35.625Z" fill="white"/>
</svg>
